/* XPM */
static char *_80551ec9a2040f3e45d6fdf60051fc1RINBcbyJrmPXvUiQ[] = {
/* columns rows colors chars-per-pixel */
"64 64 92 1 ",
"  c #6A6A6A",
". c gray42",
"X c #6C6C6C",
"o c #6D6D6D",
"O c gray43",
"+ c #6F6F6F",
"@ c gray44",
"# c #717171",
"$ c #727272",
"% c gray45",
"& c #747474",
"* c gray46",
"= c #767676",
"- c #777777",
"; c gray47",
": c #797979",
"> c gray48",
", c #7B7B7B",
"< c #7C7C7C",
"1 c gray49",
"2 c #7E7E7E",
"3 c gray50",
"4 c #808080",
"5 c #818181",
"6 c gray51",
"7 c #838383",
"8 c #848484",
"9 c gray52",
"0 c #868686",
"q c gray53",
"w c #888888",
"e c #898989",
"r c gray54",
"t c #8B8B8B",
"y c gray55",
"u c #8D8D8D",
"i c #8E8E8E",
"p c gray56",
"a c #909090",
"s c gray57",
"d c #929292",
"f c #939393",
"g c gray58",
"h c #959595",
"j c gray59",
"k c #979797",
"l c #989898",
"z c gray60",
"x c #9A9A9A",
"c c #9B9B9B",
"v c gray61",
"b c #9D9D9D",
"n c gray62",
"m c #9F9F9F",
"M c #A0A0A0",
"N c gray63",
"B c #A2A2A2",
"V c gray64",
"C c #A4A4A4",
"Z c #A5A5A5",
"A c gray65",
"S c #A7A7A7",
"D c gray66",
"F c #A9A9A9",
"G c #AAAAAA",
"H c gray67",
"J c #ACACAC",
"K c gray68",
"L c #AEAEAE",
"P c #AFAFAF",
"I c gray69",
"U c #B1B1B1",
"Y c #B2B2B2",
"T c gray70",
"R c #B4B4B4",
"E c gray71",
"W c #B6B6B6",
"Q c #B7B7B7",
"! c gray72",
"~ c gray73",
"^ c #BBBBBB",
"/ c #BCBCBC",
"( c gray74",
") c gray",
"_ c #C0C0C0",
"` c #C1C1C1",
"' c gray76",
"] c #C3C3C3",
"[ c #C5C5C5",
"{ c #C6C6C6",
"} c #C8C8C8",
"| c #CACACA",
/* pixels */
"4443,%=,8T[^/TTGg4,,3,,3,,,%,aVGbbggzaaiwi83=%3iaw44448484w8zG4,",
"34,3%%4aTGGAbVGGTAa,33,33==,zQQVgz4wi48w8wi4=%=8ai4444444448gAi=",
"843=+8ATAbziiaagzLGi==,3,%,iTGbiaiwi88ww88iw3=%3ig8444444444iza,",
"44,+8VGbiwiwwwwiwaVb3=,3=%3bLbVz8ww8ww8448ga4=%=4gi8844444848z8,",
",,==VGba888w888wiwbV3==,=,zAziwgaa88i888wizg4%=%3aza84434444wa33",
"44=8AViw448w88488wgb8,==,aGVa88wwawiwiiwagAa4%,=38zbw48488w8w43,",
"48,8Gzw48488w84888abw,%=4AGgi8w848wwwwwiazb8,=,,=,8ggiw88www8,4,",
"8838Ai8w4888w888wiza4,%=8Azw888848awwiwigzw44=3,=%,4iaawai843=,3",
",3%3ba8w88488wi4wga4,=,=4zza88844wiiw3agg834,%,=,,%%348443=3==%,",
",,,=iaw8888wi8iggi4=%=3,,wagw88888iaiVVz8%w4%,a+,,3%%%%,8%3484=,",
"34433wiwwwwwwiggw,=3%,,3=3iaaw88wiiVAAz4=38%+43%%%==%+,433338433",
"4444338iaiaiggaw,%8z,,333%3wiiiizzbGGg34w4=+,4aVVVVzw3+%343343,3",
"48843,=48iiaiw4=+%%=%%,34,=,4iagiiia8,,44,+,wATLAGAGLTa=%44=8,3,",
"8w843,4,33843=+=3wiw83%344,==,44,,==%%=,%+,wbAbzgzbVGQQb,=3Tw43=",
"48444,====,3++=4aVAbba4=4433,,,==,==,,=%%4wgziwwwiaggbTQz,%==,,,",
"b844,33,===8.,4igzaazba4,4,=,,343344,,,%4wggwwww88awwabGTi.,33,=",
"844,3,3483++,4iiwwiwizzz8%=44,3,4444,,,3wgai888848awiwabTA+,344,",
"33,=,,8888,,8iiw8wai8aaVb4%33,w4843,=3,4gg844448iwwwwwagGL,=343,",
"=%,333gw4,3wiw4488awi8wzza3=3,4443wz===8ai844448wi888waiAL4=33,,",
",=%,3,i8,=iaw4844wiwiiwiabi,==8w3,8a3,,ia84w88iai4848w4gVV3,33==",
"w84==3,,%4bi8448888iiwwwazVw+,343=w4,,=wi84888w88ww4w8gAbw=33%=4",
"bbba,,4=%wVgi8wwwwwiwaiiagGb+483,=,,33=azi88iz88wwwwwabzi3=,=,wz",
"bVATg,=+%4gVzgaii8w8wawzibGG=488843344=8bzizga8w8wwgagaw,%,,=8VV",
"zgAAVw,==%wbGGba844488wwigGL3,844,4384,,zAAzaiwiwiaaa83%%,,%4bGz",
"zzbzbg3,3=%4azzgi44448wwggGL=,38438w844%3agzgbagaii43383=3==bTAb",
"bAVgzb4,8,3=%38iai88wwwwwzGz%4338444a43=+=348ia8w43,+wai=,=8^TAV",
"zbzbVAw=8334=.%3wga88w8abAV3%33333,33=%%=%%%==,,,+++%=====%w}'AA",
"gzazbLw=83884%%%,wgaiiazVV8%=,33,=%++,4wi43,%.+%%,w443,34,%4Q/Tb",
"ggazbg=,48w84,,3,%48iagai4==48%==+%=3gVVVbzw3%44,3g884334,,%aTTV",
"Vzzzi4%,4w83%+===+%=3444,%34833,%38waAzggggg83,8,38844,3344,%aGG",
"aii4,=,w,%+%=88w44,=+%%++4ii43,%wVAVbgwiiwwwiw3,3348343,3484,%3w",
"===%,=i8+%,4iazggVzw,%%3=%8444=wQ^Gbbiiwaw88ii8%,34833,4888843=%",
",3,,=,%%3wagggwiizVVi3=8,=,343=V^QLbbgggiw84iwz4%334443348448443",
"3,333,=8azgawwiiizigaw,4,=334,=G^AbzggzzawiigaAi=33843,344334444",
"3,44,4azgai8wiwawi4iaa8,33=33==bLVgaaw8aggawgAGa%43443,,3,333344",
"443=iVVzaiiwwiawww84ii8,888=%,=iVgaiiwiiizVbLTV8%33,3,%%%%%%=348",
"4,,,LQbzggaagiaaw488wii,344,4843ggiiwwwaaVGTGa4%+%===+38aai8,=,3",
"33%3TLzaaiiigagiwwww8ag,3,,,4w4=4iawi8azAGza3%=333,=+3bAAzzgw8,%",
"%,%,AAziww84wiwiwiww8ai,3,344443=4wiagzzg8%%=38w84=+8AGVzww8ww43",
"=4++ibziw4ii488iiaiiizw=33=33484,=348884%+38844433%4bTVww48448w8",
"43g,,8aaw88w88w8igggzb334338843444,%%=%==,884443,%,gTGaww444448i",
"w=34+=8wwwwwiwiigVLAz8484,,44833843=44343,w8433==+iLGbaw8444444i",
"i8%,,%=348i8wwiazzba3%88,==3334,,3,3w8843=843,4,=4TLbiiw4444488w",
"gw=,3,,===,333333,=%=,=,,,=%%%%%++%%48443=3,,33,,V/Gaww88848488w",
"ga3=433344=+++%%%=,,333,=%38w843,3,=%=,,,,,3,33%i/Qbawww48848www",
"bg3.,44343+==%%=,,,3333=,wzzzaiiw8i83==,%33,3,,=T/Lzgaw884wwwwwa",
"za3%8844==8w84,,,343,3,%wAAziw8iaazaiw3===3333=3/'bwww88888888wi",
"ai,=8w8,3azgaa8,=,iw,,%8AAziw88w888iagi83=3333=,^/Vaw484444888ww",
"i8=+%=%4gbgiaaai3+4z=%3VTbaw8888448wwgzaa8,,433%z/Aaww4884448w8a",
"w,+++,wgbgi8iigzi3%==%iLGzaw8844884888iagaw3,333=VTAgw8w4448488i",
"3+4=3zgVaww88wwabi4%%=zQAzai848848888i888waw=,44=+aAAzga484448wi",
"3%=,zGAaw8844wiwiaw3+=AQVzg4i8488ww88w84i8az4=444=%wzbVww44844i8",
",.=iTAzw84w8ww844ww4%%b^Azaaww48w4884448w8ibw=3484+%,8izai8848i8",
"=+4LLzww888w844488w8+%i^QVgiwwww4848884wwiiAi=,33,+++%%3azi8iww4",
"+=zQVawi884444444ww4%%,V'Qbgai88484848888iVz4%=,+%==+,=%=8iiw843",
"+4TQVzziw44444444iw=,,+3G'Qbzgw8844w848wizGa=%==3iazi3%+%%3443,=",
"=a'/Vzaw88444448ia8=3,,+3zQQVg8w884884wizAa4+83%zTLQQGV8=+%,4==%",
",g['Vbgiw84448wazi,,444,+=wATGbwaw3iiiwVba4%38,iLLVVVGTGg4+%==3=",
"=w/}QAbgawiwazbba3333484,+.3A^^AAbzAbAVz83%=438AVaawawzV'G4=+=,=",
"=,iT'^LAVazbAVgw==3,33w83,3.,gLLGLAAbgi3%+%3,,zzawiwwi8zATGw,%,,",
"=%=4bTTTGAVgw,%%33,,488b3wg4%+=,33,,,%%%,=,==8bzi8w8888iabTA8,%,",
",=%%,48w443%++%%=%,334ga34w4,3=%...+%,333===,4zzi844488iwiVTz4%,",
"44,%%.=4%.+%%=%+=,,=,3w4%,,333=%%,3,,,,=,===%3abi888848w88iALa%,",
"4443,%+++3bVVba4=%,3,====,,,=%=88izawi8w84,%==wzaw84448888wiGA3,"
};
